<svg width="21" height="24" viewBox="0 0 21 24" fill="none" xmlns="http://www.w3.org/2000/svg">
<path d="M10.0833 23.6667C9.43518 23.6667 8.87963 23.4352 8.41667 22.9722C7.9537 22.5093 7.72222 21.963 7.72222 21.3333H12.4444C12.4444 21.963 12.213 22.5093 11.75 22.9722C11.287 23.4352 10.7315 23.6667 10.0833 23.6667ZM17.7778 16.5556L20.1667 18.9444V20.1111H0V18.9444L2.38889 16.5556V10.0556C2.38889 8.24074 2.94444 6.63889 4.05556 5.25C5.16667 3.86111 6.57407 2.96296 8.27778 2.55556V1.77778C8.27778 1.25926 8.4537 0.833333 8.80556 0.5C9.15741 0.166667 9.58333 0 10.0833 0C10.5833 0 11 0.166667 11.3333 0.5C11.6667 0.833333 11.8333 1.25926 11.8333 1.77778V2.55556C13.5741 2.96296 15 3.86111 16.1111 5.25C17.2222 6.63889 17.7778 8.24074 17.7778 10.0556V16.5556ZM15.3889 17.7778V10.0556C15.3889 8.57407 14.8704 7.31481 13.8333 6.27778C12.7963 5.24074 11.537 4.72222 10.0556 4.72222C8.57407 4.72222 7.31481 5.24074 6.27778 6.27778C5.24074 7.31481 4.72222 8.57407 4.72222 10.0556V17.7778H15.3889Z" fill="#B5BABE"/>
</svg>
