<svg width="20" height="20" viewBox="0 0 20 20" fill="none" xmlns="http://www.w3.org/2000/svg">
<path d="M19.0539 18.0462C19.3321 18.3245 19.3321 18.7756 19.0539 19.0539C18.7756 19.3321 18.3245 19.3321 18.0462 19.0539L14.6262 15.6339C14.348 15.3556 14.348 14.9045 14.6262 14.6262C14.9045 14.348 15.3556 14.348 15.6339 14.6262L19.0539 18.0462ZM8.29005 15.8425C4.11892 15.8425 0.737549 12.4612 0.737549 8.29005C0.737549 4.11892 4.11892 0.737549 8.29005 0.737549C12.4612 0.737549 15.8425 4.11892 15.8425 8.29005C15.8425 12.4612 12.4612 15.8425 8.29005 15.8425ZM8.29005 14.4175C11.6742 14.4175 14.4175 11.6742 14.4175 8.29005C14.4175 4.90592 11.6742 2.16255 8.29005 2.16255C4.90592 2.16255 2.16255 4.90592 2.16255 8.29005C2.16255 11.6742 4.90592 14.4175 8.29005 14.4175ZM4.77505 7.72005C4.77505 7.98238 4.56238 8.19505 4.30005 8.19505C4.03771 8.19505 3.82505 7.98238 3.82505 7.72005C3.82505 5.5689 5.5689 3.82505 7.72005 3.82505C7.98238 3.82505 8.19505 4.03771 8.19505 4.30005C8.19505 4.56238 7.98238 4.77505 7.72005 4.77505C6.09357 4.77505 4.77505 6.09357 4.77505 7.72005Z" fill="#D0C9D6"/>
</svg>
