<svg width="24" height="24" viewBox="0 0 24 24" fill="none" xmlns="http://www.w3.org/2000/svg">
<path d="M20.0803 12.8004L20.0223 13.3515L20.4588 13.6928L22.6591 15.4133C22.6595 15.4136 22.6599 15.4139 22.6604 15.4143C22.6733 15.425 22.6807 15.4377 22.6839 15.4539C22.687 15.4698 22.686 15.4907 22.6742 15.5148L20.3788 19.4899L20.3727 19.5005L20.3669 19.5111L20.3668 19.5113L20.3663 19.512L20.3641 19.5146C20.3618 19.5169 20.3582 19.5199 20.3533 19.5228C20.3431 19.5288 20.3313 19.532 20.3198 19.532C20.3117 19.532 20.304 19.531 20.2928 19.5269L17.6904 18.482L17.1828 18.2782L16.7374 18.5956C16.2625 18.9341 15.8045 19.1993 15.3457 19.4069L14.8457 19.633L14.7679 20.1761L14.3709 22.9461L14.3696 22.9555L14.3684 22.9649L14.3684 22.9652L14.3674 22.9672C14.3659 22.9699 14.3625 22.9749 14.3559 22.9806C14.3425 22.9922 14.3239 23 14.3018 23H9.70182C9.67924 23 9.66213 22.9923 9.65003 22.9818C9.63815 22.9715 9.63515 22.9624 9.63429 22.9554L9.63309 22.9457L9.63169 22.936L9.23569 20.176L9.15768 19.6322L8.65693 19.4064C8.17948 19.1911 7.71447 18.9213 7.26861 18.5998L6.82209 18.2779L6.31126 18.483L3.72714 19.5204C3.70277 19.5284 3.68672 19.5296 3.6784 19.5296C3.6688 19.5295 3.66294 19.5279 3.65929 19.5265C3.65256 19.524 3.64103 19.5172 3.63072 19.4984L3.62527 19.4884L3.6196 19.4786L1.33428 15.5246C1.3177 15.4914 1.31768 15.4657 1.32061 15.4503C1.32353 15.4349 1.32984 15.4249 1.3399 15.4166L3.54368 13.6939L3.97942 13.3533L3.92251 12.8031C3.89021 12.491 3.87583 12.2332 3.87583 12C3.87583 11.7668 3.89018 11.5091 3.92246 11.1984L3.97964 10.6481L3.54381 10.3073L1.34185 8.58543C1.32913 8.57497 1.31959 8.55986 1.31588 8.54012C1.31209 8.51998 1.31614 8.50491 1.32246 8.49422L1.32251 8.49424L1.3276 8.48544L3.62457 4.51142L3.63088 4.5005L3.63384 4.49507C3.63396 4.49497 3.63408 4.49486 3.63421 4.49475C3.63878 4.49099 3.64814 4.48486 3.6621 4.47986C3.676 4.47488 3.68939 4.47286 3.69996 4.47284C3.70754 4.47282 3.71208 4.4738 3.71413 4.47438L6.31322 5.51799L6.82052 5.72168L7.26584 5.40461C7.74033 5.06677 8.19894 4.80089 8.6565 4.5948L9.15776 4.36903L9.23572 3.82483L9.63271 1.05382L9.63405 1.04449L9.63521 1.03515C9.63521 1.03505 9.63523 1.03434 9.6364 1.03221C9.63789 1.02948 9.6413 1.02453 9.64771 1.01899C9.6608 1.00767 9.67887 1 9.70083 1H14.3008C14.3226 1 14.3402 1.00753 14.353 1.01866C14.3656 1.0296 14.3678 1.03847 14.3684 1.04314L14.3696 1.05258L14.3709 1.06199L14.7669 3.82297L14.8451 4.36771L15.3471 4.5932C15.8234 4.80718 16.288 5.07665 16.7347 5.39896L17.1813 5.72116L17.6924 5.516L20.2772 4.47832C20.2997 4.4709 20.3149 4.46972 20.3233 4.46973C20.3331 4.46976 20.3396 4.47142 20.3441 4.47313C20.3529 4.47644 20.3637 4.48377 20.3725 4.49985L20.3781 4.5102L20.384 4.52041L22.6691 8.47393C22.6857 8.50745 22.6856 8.53327 22.6827 8.54856C22.6797 8.56406 22.6734 8.57378 22.6637 8.58174C22.6634 8.58197 22.6631 8.5822 22.6628 8.58243L20.459 10.3052L20.0204 10.6479L20.0807 11.2013C20.1069 11.4417 20.1268 11.7153 20.1268 11.999C20.1268 12.2811 20.1062 12.5547 20.0803 12.8004ZM7.00082 12C7.00082 14.7583 9.24253 17 12.0008 17C14.7591 17 17.0008 14.7583 17.0008 12C17.0008 9.24173 14.7591 7.00002 12.0008 7.00002C9.24253 7.00002 7.00082 9.24173 7.00082 12Z" stroke="#B5BABE" stroke-width="2"/>
</svg>
